<mxfile host="app.diagrams.net" modified="2023-11-14T12:06:08.542Z" agent="Mozilla/5.0 (X11; Ubuntu; Linux x86_64; rv:109.0) Gecko/20100101 Firefox/119.0" etag="3bW9D0XHwhfjV1LcT5PK" version="22.1.0" type="google">
  <diagram name="Page-1" id="yokKjzdQCmrrrxki9GaG">
    <mxGraphModel grid="1" page="1" gridSize="10" guides="1" tooltips="1" connect="1" arrows="1" fold="1" pageScale="1" pageWidth="850" pageHeight="1100" math="0" shadow="0">
      <root>
        <mxCell id="0" />
        <mxCell id="1" parent="0" />
        <mxCell id="OCLIUHsN4W2QwtC2IF-4-14" value="" style="rounded=0;whiteSpace=wrap;html=1;" vertex="1" parent="1">
          <mxGeometry x="180" y="490" width="500" height="790" as="geometry" />
        </mxCell>
        <mxCell id="OCLIUHsN4W2QwtC2IF-4-15" value="" style="rounded=1;whiteSpace=wrap;html=1;fillColor=#1ba1e2;fontColor=#ffffff;strokeColor=#006EAF;" vertex="1" parent="1">
          <mxGeometry x="180" y="490" width="500" height="90" as="geometry" />
        </mxCell>
        <mxCell id="OCLIUHsN4W2QwtC2IF-4-16" value="&lt;div style=&quot;font-size: 13px;&quot; align=&quot;left&quot;&gt;&lt;b&gt;&lt;font style=&quot;font-size: 25px;&quot;&gt;Book My Charge Station&lt;/font&gt;&lt;/b&gt;&lt;/div&gt;" style="text;html=1;strokeColor=none;fillColor=none;align=center;verticalAlign=middle;whiteSpace=wrap;rounded=0;" vertex="1" parent="1">
          <mxGeometry x="210" y="520" width="350" height="30" as="geometry" />
        </mxCell>
        <mxCell id="OCLIUHsN4W2QwtC2IF-4-17" value="" style="rounded=0;whiteSpace=wrap;html=1;" vertex="1" parent="1">
          <mxGeometry x="190" y="515" width="40" height="40" as="geometry" />
        </mxCell>
        <mxCell id="OCLIUHsN4W2QwtC2IF-4-18" value="" style="shape=image;html=1;verticalAlign=top;verticalLabelPosition=bottom;labelBackgroundColor=#ffffff;imageAspect=0;aspect=fixed;image=https://cdn4.iconfinder.com/data/icons/essentials-71/24/039_-_Cross-128.png" vertex="1" parent="1">
          <mxGeometry x="640" y="520" width="30" height="30" as="geometry" />
        </mxCell>
        <mxCell id="OCLIUHsN4W2QwtC2IF-4-19" value="&lt;div align=&quot;left&quot;&gt;&lt;b&gt;&lt;font style=&quot;font-size: 14px;&quot;&gt;Pay With UPI QR&lt;/font&gt;&lt;/b&gt;&lt;/div&gt;" style="text;html=1;strokeColor=none;fillColor=none;align=left;verticalAlign=middle;whiteSpace=wrap;rounded=0;" vertex="1" parent="1">
          <mxGeometry x="190" y="580" width="210" height="50" as="geometry" />
        </mxCell>
        <mxCell id="OCLIUHsN4W2QwtC2IF-4-21" value="" style="shape=image;html=1;verticalAlign=top;verticalLabelPosition=bottom;labelBackgroundColor=#ffffff;imageAspect=0;aspect=fixed;image=https://cdn1.iconfinder.com/data/icons/ionicons-outline-vol-2/512/qr-code-outline-128.png" vertex="1" parent="1">
          <mxGeometry x="200" y="640" width="170" height="170" as="geometry" />
        </mxCell>
        <mxCell id="OCLIUHsN4W2QwtC2IF-4-22" value="&lt;font style=&quot;font-size: 15px;&quot;&gt;Scan the QR using any UPI app in your phone.&lt;/font&gt;" style="text;html=1;strokeColor=none;fillColor=none;align=center;verticalAlign=middle;whiteSpace=wrap;rounded=0;" vertex="1" parent="1">
          <mxGeometry x="410" y="650" width="210" height="50" as="geometry" />
        </mxCell>
        <mxCell id="OCLIUHsN4W2QwtC2IF-4-23" value="QR code is valid for 11:40 minutes." style="text;html=1;strokeColor=none;fillColor=none;align=center;verticalAlign=middle;whiteSpace=wrap;rounded=0;" vertex="1" parent="1">
          <mxGeometry x="410" y="790" width="220" height="30" as="geometry" />
        </mxCell>
        <mxCell id="OCLIUHsN4W2QwtC2IF-4-24" value="&lt;div align=&quot;left&quot; style=&quot;font-size: 16px;&quot;&gt;&lt;b&gt;Preferred Payment Methods &lt;/b&gt;&lt;br&gt;&lt;/div&gt;" style="text;html=1;strokeColor=none;fillColor=none;align=left;verticalAlign=middle;whiteSpace=wrap;rounded=0;" vertex="1" parent="1">
          <mxGeometry x="190" y="850" width="480" height="40" as="geometry" />
        </mxCell>
        <mxCell id="OCLIUHsN4W2QwtC2IF-4-25" value="&lt;font style=&quot;font-size: 15px;&quot;&gt;&lt;br&gt;&lt;/font&gt;&lt;div style=&quot;font-size: 15px;&quot; align=&quot;left&quot;&gt;&lt;font style=&quot;font-size: 15px;&quot;&gt;&amp;nbsp;&amp;nbsp;&amp;nbsp;&amp;nbsp;&amp;nbsp;&amp;nbsp;&amp;nbsp;&amp;nbsp;&amp;nbsp;&amp;nbsp;&amp;nbsp;&amp;nbsp;&amp;nbsp;&amp;nbsp; Pay Using UPI&lt;/font&gt;&lt;/div&gt;" style="rounded=0;whiteSpace=wrap;html=1;align=left;" vertex="1" parent="1">
          <mxGeometry x="190" y="890" width="480" height="50" as="geometry" />
        </mxCell>
        <mxCell id="OCLIUHsN4W2QwtC2IF-4-27" value="&lt;div align=&quot;left&quot;&gt;&lt;font style=&quot;font-size: 15px;&quot;&gt;&amp;nbsp;&amp;nbsp;&amp;nbsp;&amp;nbsp;&amp;nbsp;&amp;nbsp;&amp;nbsp;&amp;nbsp;&amp;nbsp;&amp;nbsp;&amp;nbsp;&amp;nbsp;&amp;nbsp;&amp;nbsp; Pay Using NetBanking&lt;/font&gt;&lt;/div&gt;" style="rounded=0;whiteSpace=wrap;html=1;align=left;" vertex="1" parent="1">
          <mxGeometry x="190" y="940" width="480" height="60" as="geometry" />
        </mxCell>
        <mxCell id="OCLIUHsN4W2QwtC2IF-4-28" value="" style="shape=image;html=1;verticalAlign=top;verticalLabelPosition=bottom;labelBackgroundColor=#ffffff;imageAspect=0;aspect=fixed;image=https://cdn4.iconfinder.com/data/icons/48-bubbles/48/04.Bank-128.png" vertex="1" parent="1">
          <mxGeometry x="200" y="950" width="40" height="40" as="geometry" />
        </mxCell>
        <mxCell id="OCLIUHsN4W2QwtC2IF-4-29" value="" style="verticalLabelPosition=bottom;verticalAlign=top;html=1;shape=mxgraph.basic.obtuse_triangle;dx=0;direction=west;" vertex="1" parent="1">
          <mxGeometry x="210" y="900" width="30" height="30" as="geometry" />
        </mxCell>
        <mxCell id="OCLIUHsN4W2QwtC2IF-4-30" value="" style="verticalLabelPosition=bottom;verticalAlign=top;html=1;shape=mxgraph.basic.obtuse_triangle;dx=0.03;direction=west;" vertex="1" parent="1">
          <mxGeometry x="210" y="910" width="20" height="20" as="geometry" />
        </mxCell>
        <mxCell id="OCLIUHsN4W2QwtC2IF-4-34" value="&lt;div style=&quot;font-size: 13px;&quot; align=&quot;left&quot;&gt;&lt;b&gt;&lt;font style=&quot;font-size: 16px;&quot;&gt;Cards,UPI and more&lt;/font&gt;&lt;/b&gt;&lt;/div&gt;" style="text;html=1;strokeColor=none;fillColor=none;align=left;verticalAlign=middle;whiteSpace=wrap;rounded=0;" vertex="1" parent="1">
          <mxGeometry x="190" y="1020" width="220" height="30" as="geometry" />
        </mxCell>
        <mxCell id="OCLIUHsN4W2QwtC2IF-4-35" value="" style="rounded=0;whiteSpace=wrap;html=1;" vertex="1" parent="1">
          <mxGeometry x="190" y="1060" width="480" height="60" as="geometry" />
        </mxCell>
        <mxCell id="OCLIUHsN4W2QwtC2IF-4-36" value="" style="rounded=0;whiteSpace=wrap;html=1;" vertex="1" parent="1">
          <mxGeometry x="190" y="1120" width="480" height="60" as="geometry" />
        </mxCell>
        <mxCell id="OCLIUHsN4W2QwtC2IF-4-37" value="" style="shape=image;html=1;verticalAlign=top;verticalLabelPosition=bottom;labelBackgroundColor=#ffffff;imageAspect=0;aspect=fixed;image=https://cdn1.iconfinder.com/data/icons/icons-for-a-site-1/64/advantage_payment_way-128.png" vertex="1" parent="1">
          <mxGeometry x="201" y="1066" width="48" height="48" as="geometry" />
        </mxCell>
        <mxCell id="OCLIUHsN4W2QwtC2IF-4-38" value="&lt;div style=&quot;font-size: 13px;&quot; align=&quot;left&quot;&gt;&lt;font style=&quot;font-size: 14px;&quot;&gt;Card&lt;/font&gt;&lt;/div&gt;" style="text;html=1;strokeColor=none;fillColor=none;align=left;verticalAlign=middle;whiteSpace=wrap;rounded=0;" vertex="1" parent="1">
          <mxGeometry x="260" y="1075" width="140" height="30" as="geometry" />
        </mxCell>
        <mxCell id="OCLIUHsN4W2QwtC2IF-4-39" value="" style="verticalLabelPosition=bottom;verticalAlign=top;html=1;shape=mxgraph.basic.obtuse_triangle;dx=0.1;direction=west;" vertex="1" parent="1">
          <mxGeometry x="210" y="1130" width="30" height="40" as="geometry" />
        </mxCell>
        <mxCell id="OCLIUHsN4W2QwtC2IF-4-41" value="" style="verticalLabelPosition=bottom;verticalAlign=top;html=1;shape=mxgraph.basic.obtuse_triangle;dx=0.03;direction=west;" vertex="1" parent="1">
          <mxGeometry x="201" y="1140" width="30" height="30" as="geometry" />
        </mxCell>
        <mxCell id="OCLIUHsN4W2QwtC2IF-4-42" value="&lt;div align=&quot;left&quot;&gt;&lt;font style=&quot;font-size: 14px;&quot;&gt;UPI&lt;/font&gt;&lt;/div&gt;" style="text;html=1;strokeColor=none;fillColor=none;align=left;verticalAlign=middle;whiteSpace=wrap;rounded=0;" vertex="1" parent="1">
          <mxGeometry x="260" y="1135" width="60" height="30" as="geometry" />
        </mxCell>
        <mxCell id="OCLIUHsN4W2QwtC2IF-4-43" value="" style="rounded=0;whiteSpace=wrap;html=1;" vertex="1" parent="1">
          <mxGeometry x="190" y="1200" width="480" height="70" as="geometry" />
        </mxCell>
        <mxCell id="OCLIUHsN4W2QwtC2IF-4-44" value="&lt;b&gt;&lt;font style=&quot;font-size: 16px;&quot;&gt;Rs.11.20&lt;/font&gt;&lt;/b&gt;" style="text;html=1;strokeColor=none;fillColor=none;align=center;verticalAlign=middle;whiteSpace=wrap;rounded=0;" vertex="1" parent="1">
          <mxGeometry x="210" y="1210" width="80" height="30" as="geometry" />
        </mxCell>
        <mxCell id="OCLIUHsN4W2QwtC2IF-4-45" value="View Details" style="text;html=1;strokeColor=none;fillColor=none;align=center;verticalAlign=middle;whiteSpace=wrap;rounded=0;" vertex="1" parent="1">
          <mxGeometry x="205" y="1230" width="90" height="30" as="geometry" />
        </mxCell>
        <mxCell id="OCLIUHsN4W2QwtC2IF-4-49" value="" style="rounded=1;whiteSpace=wrap;html=1;labelBackgroundColor=default;fillColor=#1ba1e2;fontColor=#ffffff;strokeColor=#006EAF;" vertex="1" parent="1">
          <mxGeometry x="350" y="1207.5" width="310" height="55" as="geometry" />
        </mxCell>
        <mxCell id="OCLIUHsN4W2QwtC2IF-4-50" value="&lt;font style=&quot;font-size: 18px;&quot;&gt;Pay Now&lt;/font&gt;" style="text;html=1;strokeColor=none;fillColor=none;align=center;verticalAlign=middle;whiteSpace=wrap;rounded=0;" vertex="1" parent="1">
          <mxGeometry x="420" y="1225" width="150" height="20" as="geometry" />
        </mxCell>
        <mxCell id="OCLIUHsN4W2QwtC2IF-4-51" value="&lt;div style=&quot;font-size: 14px;&quot; align=&quot;left&quot;&gt;&lt;br&gt;&lt;/div&gt;" style="text;html=1;align=center;verticalAlign=middle;whiteSpace=wrap;rounded=0;fillColor=default;fontColor=#3333FF;" vertex="1" parent="1">
          <mxGeometry x="500" y="720" width="60" height="30" as="geometry" />
        </mxCell>
        <mxCell id="OCLIUHsN4W2QwtC2IF-4-52" value="&lt;font color=&quot;#000099&quot;&gt;&lt;i&gt;pay&lt;/i&gt;&lt;/font&gt;" style="text;html=1;strokeColor=none;fillColor=none;align=center;verticalAlign=middle;whiteSpace=wrap;rounded=0;fontSize=14;fontStyle=1;fontColor=#3333FF;" vertex="1" parent="1">
          <mxGeometry x="499" y="723" width="60" height="30" as="geometry" />
        </mxCell>
        <mxCell id="OCLIUHsN4W2QwtC2IF-4-53" value="&lt;font style=&quot;font-size: 14px;&quot;&gt;tm&lt;/font&gt;" style="text;html=1;strokeColor=none;fillColor=none;align=left;verticalAlign=middle;whiteSpace=wrap;rounded=0;fontColor=#3399FF;fontStyle=3" vertex="1" parent="1">
          <mxGeometry x="540" y="723" width="60" height="30" as="geometry" />
        </mxCell>
        <mxCell id="OCLIUHsN4W2QwtC2IF-4-54" value="" style="verticalLabelPosition=bottom;verticalAlign=top;html=1;shape=mxgraph.basic.obtuse_triangle;dx=0;direction=north;rotation=-30;fontColor=#009900;fillColor=#009900;" vertex="1" parent="1">
          <mxGeometry x="572.74" y="730.22" width="20" height="21.32" as="geometry" />
        </mxCell>
        <mxCell id="OCLIUHsN4W2QwtC2IF-4-56" value="" style="verticalLabelPosition=bottom;verticalAlign=top;html=1;shape=mxgraph.basic.obtuse_triangle;dx=0.25;rotation=-110;fillColor=#FF8000;" vertex="1" parent="1">
          <mxGeometry x="567.22" y="733.23" width="21.18" height="16.84" as="geometry" />
        </mxCell>
        <mxCell id="OCLIUHsN4W2QwtC2IF-4-65" value="&lt;div style=&quot;font-size: 13px;&quot; align=&quot;right&quot;&gt;&lt;font style=&quot;font-size: 14px;&quot;&gt;Pay&lt;/font&gt;&lt;/div&gt;" style="text;html=1;strokeColor=none;fillColor=none;align=right;verticalAlign=middle;whiteSpace=wrap;rounded=0;" vertex="1" parent="1">
          <mxGeometry x="365" y="718" width="130" height="40" as="geometry" />
        </mxCell>
        <mxCell id="OCLIUHsN4W2QwtC2IF-4-66" value="" style="shape=image;html=1;verticalAlign=top;verticalLabelPosition=bottom;labelBackgroundColor=#ffffff;imageAspect=0;aspect=fixed;image=https://cdn4.iconfinder.com/data/icons/socialcones/508/Google-128.png" vertex="1" parent="1">
          <mxGeometry x="440" y="720" width="30" height="30" as="geometry" />
        </mxCell>
        <mxCell id="OCLIUHsN4W2QwtC2IF-4-67" value="" style="ellipse;whiteSpace=wrap;html=1;aspect=fixed;" vertex="1" parent="1">
          <mxGeometry x="577" y="1070" width="40" height="40" as="geometry" />
        </mxCell>
        <mxCell id="OCLIUHsN4W2QwtC2IF-4-68" value="" style="shape=image;html=1;verticalAlign=top;verticalLabelPosition=bottom;labelBackgroundColor=#ffffff;imageAspect=0;aspect=fixed;image=https://cdn0.iconfinder.com/data/icons/credit-card-debit-card-payment-PNG/80/Visa-Straight.png" vertex="1" parent="1">
          <mxGeometry x="537" y="1066" width="48" height="48" as="geometry" />
        </mxCell>
        <mxCell id="OCLIUHsN4W2QwtC2IF-4-70" value="" style="ellipse;whiteSpace=wrap;html=1;aspect=fixed;fillColor=#CC0000;" vertex="1" parent="1">
          <mxGeometry x="580" y="1080" width="20" height="20" as="geometry" />
        </mxCell>
        <mxCell id="OCLIUHsN4W2QwtC2IF-4-71" value="" style="ellipse;whiteSpace=wrap;html=1;aspect=fixed;fillColor=#FF8000;" vertex="1" parent="1">
          <mxGeometry x="592.74" y="1080" width="20" height="20" as="geometry" />
        </mxCell>
      </root>
    </mxGraphModel>
  </diagram>
</mxfile>
